<svg width="1058" height="275" viewBox="0 0 1058 275" fill="none" xmlns="http://www.w3.org/2000/svg">
<g clip-path="url(#clip0_331_4)">
<path d="M0.600098 272V3.72493H40.7501C54.3768 3.72493 66.1176 6.15827 75.9726 11.0249C85.9493 15.7699 93.6143 23.2524 98.9676 33.4724C104.443 43.6924 107.18 56.8932 107.18 73.0749C107.18 85.9716 105.477 97.2257 102.07 106.837C98.7851 116.449 92.3368 124.297 82.7251 130.38C92.4584 135.733 99.4543 144.25 103.713 155.93C107.971 167.488 110.1 180.872 110.1 196.08C110.1 211.045 107.667 224.246 102.8 235.682C98.0551 247.119 90.9984 256.062 81.6301 262.51C72.3834 268.837 60.9468 272 47.3201 272H0.600098ZM40.0201 232.945C51.9434 232.945 59.7909 229.417 63.5626 222.36C67.3343 215.182 69.2201 204.962 69.2201 191.7C69.2201 178.195 67.3343 167.975 63.5626 161.04C59.7909 153.983 51.9434 150.455 40.0201 150.455V232.945ZM40.0201 114.32C51.0918 114.32 58.6959 111.278 62.8326 105.195C67.0909 99.1116 69.2201 90.1082 69.2201 78.1849C69.2201 66.1399 67.0301 57.2582 62.6501 51.5399C58.3918 45.6999 50.8484 42.7799 40.0201 42.7799V114.32ZM133.554 272V3.72493H172.974V235.5H225.169V272H133.554ZM236.553 272L277.068 3.72493H325.248L365.763 272H327.438L320.138 217.25H282.178L274.878 272H236.553ZM287.653 175.64H314.663L303.348 85.4849L302.253 71.2499H300.063L298.968 85.4849L287.653 175.64ZM437.365 274.92C426.172 274.92 416.621 272.426 408.713 267.437C400.926 262.327 394.964 255.392 390.828 246.632C386.813 237.872 384.805 227.957 384.805 216.885V58.8399C384.805 47.8899 386.874 38.0349 391.01 29.2749C395.269 20.5149 401.352 13.5799 409.26 8.46992C417.169 3.35992 426.537 0.804932 437.365 0.804932C445.517 0.804932 452.817 2.32576 459.265 5.36742C465.714 8.40909 471.189 12.6065 475.69 17.9599C480.314 23.1916 483.842 29.3357 486.275 36.3924C488.709 43.3274 489.925 50.8099 489.925 58.8399V95.7049H453.06V58.8399C453.06 53.2432 451.904 48.5591 449.593 44.7874C447.281 41.0157 443.449 39.1299 438.095 39.1299C433.229 39.1299 429.7 41.0766 427.51 44.9699C425.32 48.8632 424.225 53.4866 424.225 58.8399V216.885C424.225 222.238 425.381 226.862 427.693 230.755C430.126 234.648 433.594 236.595 438.095 236.595C443.57 236.595 447.403 234.709 449.593 230.937C451.904 227.166 453.06 222.482 453.06 216.885V180.02H489.925V216.885C489.925 227.835 487.796 237.69 483.538 246.45C479.279 255.21 473.196 262.145 465.288 267.255C457.501 272.365 448.194 274.92 437.365 274.92ZM517.446 272V3.72493H556.866V93.1499V97.5299H558.326L560.151 93.1499L590.811 3.72493H631.326L595.191 92.0549L636.071 272H595.556L569.276 149.725H568.181L556.866 177.1V272H517.446ZM654.321 272V3.72493H693.741V235.5H745.936V272H654.321ZM761.967 272V3.72493H801.387V272H761.967ZM878.211 274.92C867.383 274.92 858.379 273.156 851.201 269.627C844.023 265.977 838.365 260.746 834.229 253.932C830.092 247.119 827.111 238.907 825.286 229.295C823.583 219.683 822.731 208.855 822.731 196.81L861.421 193.16C861.421 199 861.604 204.657 861.969 210.132C862.455 215.486 863.246 220.352 864.341 224.732C865.558 228.991 867.261 232.397 869.451 234.952C871.763 237.507 874.683 238.785 878.211 238.785C884.051 238.785 888.188 236.108 890.621 230.755C893.054 225.28 894.271 218.71 894.271 211.045C894.271 203.38 892.264 195.411 888.249 187.137C884.234 178.864 879.428 171.017 873.831 163.595C864.341 150.942 856.007 139.201 848.829 128.372C841.772 117.544 836.236 106.898 832.221 96.4349C828.328 85.9716 826.381 75.0216 826.381 63.5849C826.381 54.5816 827.537 46.3082 829.849 38.7649C832.16 31.0999 835.506 24.4691 839.886 18.8724C844.388 13.1541 849.802 8.71327 856.129 5.54993C862.455 2.3866 869.694 0.804932 877.846 0.804932C887.944 0.804932 896.461 2.50826 903.396 5.91493C910.453 9.32159 916.11 14.1882 920.369 20.5149C924.749 26.8416 927.912 34.3849 929.859 43.1449C931.927 51.7832 932.961 61.3949 932.961 71.9799L894.271 75.6299C894.271 71.1282 894.028 66.6266 893.541 62.1249C893.176 57.5016 892.446 53.3041 891.351 49.5324C890.256 45.7607 888.674 42.7191 886.606 40.4074C884.538 38.0957 881.861 36.9399 878.576 36.9399C873.466 36.9399 869.938 39.1299 867.991 43.5099C866.044 47.7682 865.071 53.8516 865.071 61.7599C865.071 71.9799 867.809 81.8349 873.284 91.3249C878.759 100.815 886.119 111.887 895.366 124.54C906.438 139.505 915.441 153.253 922.376 165.785C929.433 178.317 932.961 192.187 932.961 207.395C932.961 217.007 931.927 225.949 929.859 234.222C927.79 242.374 924.505 249.492 920.004 255.575C915.624 261.658 909.966 266.403 903.031 269.81C896.218 273.217 887.944 274.92 878.211 274.92ZM980.371 272V44.2399H943.141V3.72493H1057.02V44.2399H1019.79V272H980.371Z" fill="#AA0002"/>
</g>
<defs>
<clipPath id="clip0_331_4">
<rect width="1058" height="275" fill="white"/>
</clipPath>
</defs>
</svg>
