<svg width="1024" height="1440" viewBox="0 0 1024 1440" fill="none" xmlns="http://www.w3.org/2000/svg">
<g clip-path="url(#clip0_560_15)">
<rect width="1024" height="1440" fill="white"/>
<path d="M6.10369 1456.52L-77.3968 1174.63L-35.2088 1162.13C-20.8904 1157.89 -7.79619 1156.79 4.07381 1158.84C16.0338 1160.72 26.4168 1166.19 35.2228 1175.27C44.1567 1184.3 51.142 1197.32 56.1785 1214.32C60.1926 1227.87 61.9056 1240.23 61.3177 1251.39C60.8575 1262.51 56.5244 1272.77 48.3183 1282.15C60.2119 1284.74 70.2137 1291.52 78.3236 1302.46C86.3956 1313.28 92.7984 1326.68 97.532 1342.66C102.19 1358.39 103.742 1373.02 102.188 1386.55C100.761 1400.04 96.13 1411.64 88.2931 1421.33C80.5463 1430.85 69.5136 1437.74 55.1953 1441.98L6.10369 1456.52ZM35.3688 1403.21C47.8974 1399.5 55.0451 1393.35 56.8118 1384.76C58.5407 1376.05 57.3413 1364.72 53.2136 1350.78C49.0102 1336.59 43.8476 1326.44 37.726 1320.33C31.5665 1314.09 22.2224 1312.82 9.69386 1316.53L35.3688 1403.21ZM-1.55315 1278.57C10.0805 1275.12 17.124 1269.56 19.5772 1261.88C22.1583 1254.16 21.5932 1244.04 17.8821 1231.51C14.1331 1218.85 9.06749 1210.2 2.68532 1205.56C-3.60687 1200.74 -12.442 1200.02 -23.82 1203.39L-1.55315 1278.57ZM145.807 1415.14L62.3062 1133.24L103.727 1120.97L175.867 1364.51L230.712 1348.27L242.072 1386.62L145.807 1415.14ZM254.034 1383.08L213.105 1088.58L263.73 1073.58L389.802 1342.86L349.532 1354.79L324.82 1299.53L284.934 1311.35L294.304 1371.15L254.034 1383.08ZM277.735 1265.92L306.116 1257.52L266.166 1166.31L260.585 1151.69L258.284 1152.37L261.564 1167.67L277.735 1265.92ZM465.949 1323.64C454.187 1327.13 443.375 1327.48 433.513 1324.7C423.74 1321.75 415.318 1316.32 408.244 1308.41C401.299 1300.45 396.103 1290.66 392.657 1279.02L343.466 1112.95C340.058 1101.45 339.164 1090.45 340.784 1079.96C342.532 1069.43 346.765 1060.25 353.484 1052.42C360.204 1044.59 369.252 1038.99 380.63 1035.61C389.196 1033.08 397.34 1032.4 405.062 1033.59C412.785 1034.78 419.844 1037.49 426.24 1041.71C432.727 1045.77 438.347 1051.13 443.1 1057.79C447.815 1064.32 451.422 1071.8 453.922 1080.24L465.396 1118.97L426.66 1130.45L415.185 1091.71C413.444 1085.83 410.771 1081.27 407.168 1078.02C403.565 1074.78 398.951 1073.99 393.326 1075.66C388.212 1077.17 385.111 1080.32 384.021 1085.09C382.932 1089.86 383.221 1095.06 384.887 1100.69L434.078 1266.75C435.744 1272.38 438.398 1276.88 442.039 1280.25C445.807 1283.58 450.057 1284.55 454.787 1283.15C460.54 1281.44 463.98 1278.27 465.107 1273.62C466.362 1268.94 466.119 1263.66 464.377 1257.78L452.903 1219.04L491.639 1207.57L503.113 1246.3C506.521 1257.81 507.352 1268.83 505.604 1279.36C503.856 1289.89 499.622 1299.07 492.903 1306.9C486.311 1314.69 477.327 1320.27 465.949 1323.64ZM549.185 1295.65L465.685 1013.76L507.106 1001.49L534.939 1095.45L536.302 1100.06L537.837 1099.6L538.391 1094.43L542.774 990.923L585.345 978.313L574.869 1082.37L673.832 1258.73L631.26 1271.34L565.588 1151.04L564.438 1151.38L561.069 1183.66L590.606 1283.38L549.185 1295.65ZM693.008 1253.05L609.508 971.156L650.929 958.886L723.069 1202.43L777.913 1186.18L789.274 1224.53L693.008 1253.05ZM806.119 1219.54L722.618 937.651L764.039 925.381L847.54 1207.27L806.119 1219.54ZM929.172 1186.43C917.794 1189.8 907.785 1190.75 899.144 1189.28C890.465 1187.68 882.892 1183.94 876.425 1178.07C869.958 1172.2 864.269 1164.49 859.36 1154.96C854.579 1145.39 850.313 1134.28 846.564 1121.62L886.082 1105.75C887.9 1111.88 889.853 1117.77 891.94 1123.41C894.118 1128.88 896.464 1133.75 898.978 1138.01C901.581 1142.11 904.431 1145.16 907.528 1147.16C910.752 1149.13 914.218 1149.56 917.925 1148.46C924.062 1146.64 927.575 1142.54 928.466 1136.16C929.319 1129.65 928.552 1122.37 926.167 1114.31C923.781 1106.26 919.191 1098.51 912.397 1091.07C905.603 1083.62 898.111 1076.87 889.92 1070.82C876.01 1060.48 863.599 1050.73 852.686 1041.59C841.9 1032.41 832.77 1022.95 825.294 1013.2C817.947 1003.42 812.493 992.518 808.933 980.5C806.131 971.04 804.771 961.987 804.852 953.341C804.895 944.568 806.347 936.559 809.207 929.315C812.158 921.905 816.464 915.554 822.128 910.261C827.791 904.968 834.905 901.052 843.471 898.515C854.082 895.372 863.561 894.511 871.908 895.932C880.383 897.315 887.843 900.668 894.286 905.991C900.858 911.275 906.53 918.217 911.302 926.816C916.164 935.249 920.242 945.026 923.537 956.149L884.019 972.026C882.618 967.296 880.961 962.641 879.048 958.063C877.226 953.318 875.152 949.135 872.828 945.513C870.503 941.89 867.894 939.187 865.002 937.401C862.109 935.616 858.936 935.235 855.485 936.257C850.115 937.848 847.09 941.247 846.407 946.455C845.687 951.536 846.558 958.231 849.019 966.541C852.2 977.279 858.144 986.783 866.851 995.05C875.558 1003.32 886.738 1012.66 900.392 1023.08C916.684 1035.36 930.424 1047 941.611 1058.01C952.926 1068.98 960.951 1082.46 965.684 1098.44C968.676 1108.54 970.373 1118.26 970.775 1127.59C971.138 1136.8 969.902 1145.3 967.065 1153.1C964.356 1160.85 959.889 1167.6 953.662 1173.34C947.563 1179.04 939.4 1183.4 929.172 1186.43ZM1035.61 1151.57L964.719 912.244L925.599 923.832L912.989 881.26L1032.65 845.815L1045.26 888.387L1006.14 899.975L1077.03 1139.3L1035.61 1151.57Z" fill="#AA0002" fill-opacity="0.2"/>
</g>
<defs>
<clipPath id="clip0_560_15">
<rect width="1024" height="1440" fill="white"/>
</clipPath>
</defs>
</svg>
